# xmcd CD database file
#
# Track frame offsets:
#	150
#	16710
#	45871
#	76331
#	111804
#	132477
#	154500
#	184111
#	209534
#	243857
#
# Disc length: 3439 seconds
#
# Revision: 1
# Processed by: cddbd v1.5.2PL0 Copyright (c) Steve Scherf et al.
# Submitted via: CDex 1.51
#
DISCID=720d6d0a
DTITLE=Various Artist - My First Jazz-Heart Broken Jaz
DYEAR=1997
DGENRE=Jazz
TTITLE0=When I Fall In Love -- Kimiko Itoh
TTITLE1=Yanks -- Fred Karlin
TTITLE2=Moon River -- Joe Locke and New York quartet
TTITLE3=LaVie En rose -- Masha Billsma Band
TTITLE4=My dear Friend -- East bounce
TTITLE5=Agua de Beber -- Camila Benson
TTITLE6=Soul Eyes -- McCoy Tyner
TTITLE7=The Shadow of  Your Smile -- Niels H.Q.Pederson
TTITLE8=To Touch You Again/ Lady Blue -- John Tropea
TTITLE9=Again -- Ryo Kawasaki
EXTD=YEAR: 1997
EXTT0=
EXTT1=
EXTT2=
EXTT3=
EXTT4=
EXTT5=
EXTT6=
EXTT7=
EXTT8=
EXTT9=
PLAYORDER=
